<?xml version="1.0" encoding="utf-8"?>
<!-- Generator: Adobe Illustrator 24.1.0, SVG Export Plug-In . SVG Version: 6.00 Build 0)  -->
<svg version="1.1" id="Layer_1" xmlns="http://www.w3.org/2000/svg" xmlns:xlink="http://www.w3.org/1999/xlink" x="0px" y="0px"
	 viewBox="0 0 387.7 416.1" style="enable-background:new 0 0 387.7 416.1;" xml:space="preserve">
<style type="text/css">
	.st0{fill:none;stroke:#000000;stroke-width:1.9973;stroke-linecap:round;stroke-linejoin:bevel;stroke-miterlimit:3.9945;}
	
		.st1{fill-rule:evenodd;clip-rule:evenodd;fill-opacity:0;stroke:#000000;stroke-width:0.9986;stroke-linecap:square;stroke-linejoin:bevel;stroke-miterlimit:3.9945;stroke-opacity:0;}
	
		.st2{fill-rule:evenodd;clip-rule:evenodd;fill:#377EB8;stroke:#000000;stroke-width:0.9986;stroke-linecap:square;stroke-linejoin:bevel;stroke-miterlimit:3.9945;}
	
		.st3{fill-rule:evenodd;clip-rule:evenodd;fill:#4DAF4A;stroke:#000000;stroke-width:0.9986;stroke-linecap:square;stroke-linejoin:bevel;stroke-miterlimit:3.9945;}
	
		.st4{fill-rule:evenodd;clip-rule:evenodd;fill:#E41A1C;stroke:#000000;stroke-width:0.9986;stroke-linecap:square;stroke-linejoin:bevel;stroke-miterlimit:3.9945;}
	.st5{font-family:'Baskerville';}
	.st6{font-size:10px;}
	
		.st7{fill-rule:evenodd;clip-rule:evenodd;stroke:#000000;stroke-width:0.9986;stroke-linecap:square;stroke-linejoin:bevel;stroke-miterlimit:3.9945;}
	
		.st8{fill-rule:evenodd;clip-rule:evenodd;fill-opacity:0;stroke:#000000;stroke-width:0.9986;stroke-linecap:square;stroke-linejoin:bevel;stroke-miterlimit:3.9945;}
	.st9{font-size:5.9918px;}
</style>
<desc>A haplotype network image created by PopART.</desc>
<g transform="matrix(1,0,0,1,0,0)">
</g>
<g transform="matrix(0.998633,0,0,0.998633,0,0)">
</g>
<g transform="matrix(0.998633,0,0,0.998633,0,0)">
</g>
<g transform="matrix(0.998633,0,0,0.998633,0,0)">
</g>
<g transform="matrix(0.998633,0,0,0.998633,0,0)">
	<line vector-effect="none" class="st0" x1="122.6" y1="281.2" x2="79.5" y2="353.2"/>
	<line vector-effect="none" class="st0" x1="97.5" y1="312.1" x2="106.5" y2="317.1"/>
</g>
<g transform="matrix(0.998633,0,0,0.998633,0,0)">
</g>
<g transform="matrix(0.998633,0,0,0.998633,0,0)">
</g>
<g transform="matrix(0.998633,0,0,0.998633,0,0)">
	<line vector-effect="none" class="st0" x1="122.6" y1="281.2" x2="45.5" y2="246.5"/>
	<line vector-effect="none" class="st0" x1="87.5" y1="260.1" x2="83.5" y2="269.1"/>
</g>
<g transform="matrix(0.998633,0,0,0.998633,0,0)">
</g>
<g transform="matrix(0.998633,0,0,0.998633,0,0)">
</g>
<g transform="matrix(0.998633,0,0,0.998633,0,0)">
	<line vector-effect="none" class="st0" x1="122.6" y1="281.2" x2="231.3" y2="240.4"/>
	<line vector-effect="none" class="st0" x1="172.5" y1="256.1" x2="175.5" y2="266.1"/>
</g>
<g transform="matrix(0.998633,0,0,0.998633,0,0)">
</g>
<g transform="matrix(0.998633,0,0,0.998633,0,0)">
</g>
<g transform="matrix(0.998633,0,0,0.998633,0,0)">
	<line vector-effect="none" class="st0" x1="122.6" y1="281.2" x2="186.6" y2="326.9"/>
	<line vector-effect="none" class="st0" x1="154.5" y1="298.1" x2="149.5" y2="306.1"/>
</g>
<g transform="matrix(0.998633,0,0,0.998633,0,0)">
</g>
<g transform="matrix(0.998633,0,0,0.998633,0,0)">
</g>
<g transform="matrix(0.998633,0,0,0.998633,0,0)">
	<line vector-effect="none" class="st0" x1="79.5" y1="353.2" x2="139.2" y2="401.4"/>
	<line vector-effect="none" class="st0" x1="110.5" y1="371.1" x2="103.5" y2="379.1"/>
</g>
<g transform="matrix(0.998633,0,0,0.998633,0,0)">
</g>
<g transform="matrix(0.998633,0,0,0.998633,0,0)">
</g>
<g transform="matrix(0.998633,0,0,0.998633,0,0)">
	<line vector-effect="none" class="st0" x1="336.5" y1="263" x2="271.6" y2="306.5"/>
	<line vector-effect="none" class="st0" x1="302.5" y1="279.1" x2="308.5" y2="287.1"/>
</g>
<g transform="matrix(0.998633,0,0,0.998633,0,0)">
</g>
<g transform="matrix(0.998633,0,0,0.998633,0,0)">
</g>
<g transform="matrix(0.998633,0,0,0.998633,0,0)">
	<line vector-effect="none" class="st0" x1="336.5" y1="263" x2="308.7" y2="190.7"/>
	<line vector-effect="none" class="st0" x1="327.5" y1="227.1" x2="318.5" y2="230.1"/>
</g>
<g transform="matrix(0.998633,0,0,0.998633,0,0)">
</g>
<g transform="matrix(0.998633,0,0,0.998633,0,0)">
</g>
<g transform="matrix(0.998633,0,0,0.998633,0,0)">
	<line vector-effect="none" class="st0" x1="231.3" y1="240.4" x2="271.6" y2="306.5"/>
	<line vector-effect="none" class="st0" x1="253.5" y1="268.1" x2="245.5" y2="273.1"/>
</g>
<g transform="matrix(0.998633,0,0,0.998633,0,0)">
</g>
<g transform="matrix(0.998633,0,0,0.998633,0,0)">
</g>
<g transform="matrix(0.998633,0,0,0.998633,0,0)">
	<line vector-effect="none" class="st0" x1="231.3" y1="240.4" x2="308.7" y2="190.7"/>
	<line vector-effect="none" class="st0" x1="264.5" y1="212.1" x2="270.5" y2="220.1"/>
</g>
<g transform="matrix(0.998633,0,0,0.998633,0,0)">
</g>
<g transform="matrix(0.998633,0,0,0.998633,0,0)">
</g>
<g transform="matrix(0.998633,0,0,0.998633,0,0)">
	<line vector-effect="none" class="st0" x1="186.6" y1="326.9" x2="154.7" y2="231.2"/>
	<line vector-effect="none" class="st0" x1="175.5" y1="279.1" x2="166.5" y2="282.1"/>
</g>
<g transform="matrix(0.998633,0,0,0.998633,0,0)">
</g>
<g transform="matrix(0.998633,0,0,0.998633,0,0)">
</g>
<g transform="matrix(0.998633,0,0,0.998633,0,0)">
	<line vector-effect="none" class="st0" x1="186.6" y1="326.9" x2="139.2" y2="401.4"/>
	<line vector-effect="none" class="st0" x1="159.5" y1="359.1" x2="167.5" y2="364.1"/>
</g>
<g transform="matrix(0.998633,0,0,0.998633,0,0)">
</g>
<g transform="matrix(0.998633,0,0,0.998633,0,0)">
</g>
<g transform="matrix(0.998633,0,0,0.998633,0,0)">
	<line vector-effect="none" class="st0" x1="186.6" y1="326.9" x2="271.6" y2="306.5"/>
	<line vector-effect="none" class="st0" x1="224.5" y1="312.1" x2="227.5" y2="322.1"/>
</g>
<g transform="matrix(0.998633,0,0,0.998633,0,0)">
</g>
<g transform="matrix(0.998633,0,0,0.998633,0,0)">
</g>
<g transform="matrix(0.998633,0,0,0.998633,0,0)">
	<line vector-effect="none" class="st0" x1="362.6" y1="12.6" x2="308.7" y2="190.7"/>
	<line vector-effect="none" class="st0" x1="341.5" y1="64.1" x2="350.5" y2="67.1"/>
	<line vector-effect="none" class="st0" x1="339.5" y1="68.1" x2="349.5" y2="71.1"/>
	<line vector-effect="none" class="st0" x1="338.5" y1="73.1" x2="347.5" y2="76.1"/>
	<line vector-effect="none" class="st0" x1="336.5" y1="78.1" x2="346.5" y2="81.1"/>
	<line vector-effect="none" class="st0" x1="335.5" y1="83.1" x2="345.5" y2="86.1"/>
	<line vector-effect="none" class="st0" x1="334.5" y1="88.1" x2="343.5" y2="91.1"/>
	<line vector-effect="none" class="st0" x1="332.5" y1="92.1" x2="342.5" y2="95.1"/>
	<line vector-effect="none" class="st0" x1="331.5" y1="97.1" x2="340.5" y2="100.1"/>
	<line vector-effect="none" class="st0" x1="329.5" y1="102.1" x2="339.5" y2="105.1"/>
	<line vector-effect="none" class="st0" x1="328.5" y1="107.1" x2="337.5" y2="110.1"/>
	<line vector-effect="none" class="st0" x1="326.5" y1="112.1" x2="336.5" y2="114.1"/>
	<line vector-effect="none" class="st0" x1="325.5" y1="116.1" x2="334.5" y2="119.1"/>
	<line vector-effect="none" class="st0" x1="323.5" y1="121.1" x2="333.5" y2="124.1"/>
	<line vector-effect="none" class="st0" x1="322.5" y1="126.1" x2="331.5" y2="129.1"/>
	<line vector-effect="none" class="st0" x1="320.5" y1="131.1" x2="330.5" y2="134.1"/>
</g>
<g transform="matrix(0.998633,0,0,0.998633,0,0)">
</g>
<g transform="matrix(0.998633,0,0,0.998633,0,0)">
</g>
<g transform="matrix(0.998633,0,0,0.998633,0,0)">
	<line vector-effect="none" class="st0" x1="308.7" y1="190.7" x2="371.8" y2="149.9"/>
	<line vector-effect="none" class="st0" x1="334.5" y1="167.1" x2="340.5" y2="175.1"/>
</g>
<g transform="matrix(0.998633,0,0,0.998633,0,0)">
</g>
<g transform="matrix(0.998633,0,0,0.998633,0,0)">
</g>
<g transform="matrix(0.998633,0,0,0.998633,0,0)">
	<path vector-effect="non-scaling-stroke" class="st1" d="M130.1,281.2c0,4.1-3.4,7.5-7.5,7.5c-4.1,0-7.5-3.4-7.5-7.5
		c0-4.1,3.4-7.5,7.5-7.5C126.8,273.7,130.1,277.1,130.1,281.2"/>
</g>
<g transform="matrix(0.998633,0,0,0.998633,0,0)">
</g>
<g transform="matrix(0.998633,0,0,0.998633,0,0)">
</g>
<g transform="matrix(0.998633,0,0,0.998633,0,0)">
	<path vector-effect="none" class="st2" d="M122.6,281.2h7.5H122.6"/>
</g>
<g transform="matrix(0.998633,0,0,0.998633,0,0)">
</g>
<g transform="matrix(0.998633,0,0,0.998633,0,0)">
</g>
<g transform="matrix(0.998633,0,0,0.998633,0,0)">
	<path vector-effect="none" class="st3" d="M122.6,281.2h7.5H122.6"/>
</g>
<g transform="matrix(0.998633,0,0,0.998633,0,0)">
</g>
<g transform="matrix(0.998633,0,0,0.998633,0,0)">
</g>
<g transform="matrix(0.998633,0,0,0.998633,0,0)">
	<path vector-effect="none" class="st4" d="M130.1,281.2c0,4.1-3.4,7.5-7.5,7.5c-4.1,0-7.5-3.4-7.5-7.5c0-4.1,3.4-7.5,7.5-7.5
		C126.8,273.7,130.1,277.1,130.1,281.2"/>
</g>
<g transform="matrix(0.998633,0,0,0.998633,0,0)">
</g>
<g transform="matrix(1,0,0,1,150.601,331.131)">
</g>
<g transform="matrix(1,0,0,1,150.601,331.131)">
	<text transform="matrix(1 0 0 1 -70.3786 -48.8333)" class="st5 st6">DC1105</text>
</g>
<g transform="matrix(1,0,0,1,150.601,331.131)">
</g>
<g transform="matrix(0.998633,0,0,0.998633,0,0)">
</g>
<g transform="matrix(0.998633,0,0,0.998633,0,0)">
	<path vector-effect="non-scaling-stroke" class="st1" d="M87,353.2c0,4.1-3.4,7.5-7.5,7.5c-4.1,0-7.5-3.4-7.5-7.5s3.4-7.5,7.5-7.5
		C83.6,345.7,87,349.1,87,353.2"/>
</g>
<g transform="matrix(0.998633,0,0,0.998633,0,0)">
</g>
<g transform="matrix(0.998633,0,0,0.998633,0,0)">
</g>
<g transform="matrix(0.998633,0,0,0.998633,0,0)">
	<path vector-effect="none" class="st2" d="M79.5,353.2H87H79.5"/>
</g>
<g transform="matrix(0.998633,0,0,0.998633,0,0)">
</g>
<g transform="matrix(0.998633,0,0,0.998633,0,0)">
</g>
<g transform="matrix(0.998633,0,0,0.998633,0,0)">
	<path vector-effect="none" class="st3" d="M87,353.2c0,4.1-3.4,7.5-7.5,7.5c-4.1,0-7.5-3.4-7.5-7.5s3.4-7.5,7.5-7.5
		C83.6,345.7,87,349.1,87,353.2"/>
</g>
<g transform="matrix(0.998633,0,0,0.998633,0,0)">
</g>
<g transform="matrix(1,0,0,1,107.543,403.053)">
</g>
<g transform="matrix(1,0,0,1,107.543,403.053)">
	<text transform="matrix(1 0 0 1 -70.3786 -48.8333)" class="st5 st6">DC1108</text>
</g>
<g transform="matrix(1,0,0,1,107.543,403.053)">
</g>
<g transform="matrix(0.998633,0,0,0.998633,0,0)">
</g>
<g transform="matrix(0.998633,0,0,0.998633,0,0)">
	<path vector-effect="non-scaling-stroke" class="st1" d="M53,246.5c0,4.1-3.4,7.5-7.5,7.5s-7.5-3.4-7.5-7.5s3.4-7.5,7.5-7.5
		S53,242.4,53,246.5"/>
</g>
<g transform="matrix(0.998633,0,0,0.998633,0,0)">
</g>
<g transform="matrix(0.998633,0,0,0.998633,0,0)">
</g>
<g transform="matrix(0.998633,0,0,0.998633,0,0)">
	<path vector-effect="none" class="st2" d="M45.5,246.5H53H45.5"/>
</g>
<g transform="matrix(0.998633,0,0,0.998633,0,0)">
</g>
<g transform="matrix(0.998633,0,0,0.998633,0,0)">
</g>
<g transform="matrix(0.998633,0,0,0.998633,0,0)">
	<path vector-effect="none" class="st3" d="M45.5,246.5H53H45.5"/>
</g>
<g transform="matrix(0.998633,0,0,0.998633,0,0)">
</g>
<g transform="matrix(0.998633,0,0,0.998633,0,0)">
</g>
<g transform="matrix(0.998633,0,0,0.998633,0,0)">
	<path vector-effect="none" class="st4" d="M53,246.5c0,4.1-3.4,7.5-7.5,7.5s-7.5-3.4-7.5-7.5s3.4-7.5,7.5-7.5S53,242.4,53,246.5"/>
</g>
<g transform="matrix(0.998633,0,0,0.998633,0,0)">
</g>
<g transform="matrix(1,0,0,1,73.59,296.473)">
</g>
<g transform="matrix(1,0,0,1,73.59,296.473)">
	<text transform="matrix(1 0 0 1 -70.3786 -48.8333)" class="st5 st6">DC1109</text>
</g>
<g transform="matrix(1,0,0,1,73.59,296.473)">
</g>
<g transform="matrix(0.998633,0,0,0.998633,0,0)">
</g>
<g transform="matrix(0.998633,0,0,0.998633,0,0)">
	<path vector-effect="non-scaling-stroke" class="st1" d="M162.2,231.2c0,4.1-3.4,7.5-7.5,7.5s-7.5-3.4-7.5-7.5
		c0-4.1,3.4-7.5,7.5-7.5S162.2,227,162.2,231.2"/>
</g>
<g transform="matrix(0.998633,0,0,0.998633,0,0)">
</g>
<g transform="matrix(0.998633,0,0,0.998633,0,0)">
</g>
<g transform="matrix(0.998633,0,0,0.998633,0,0)">
	<path vector-effect="none" class="st2" d="M154.7,231.2h7.5H154.7"/>
</g>
<g transform="matrix(0.998633,0,0,0.998633,0,0)">
</g>
<g transform="matrix(0.998633,0,0,0.998633,0,0)">
</g>
<g transform="matrix(0.998633,0,0,0.998633,0,0)">
	<path vector-effect="none" class="st3" d="M154.7,231.2h7.5H154.7"/>
</g>
<g transform="matrix(0.998633,0,0,0.998633,0,0)">
</g>
<g transform="matrix(0.998633,0,0,0.998633,0,0)">
</g>
<g transform="matrix(0.998633,0,0,0.998633,0,0)">
	<path vector-effect="none" class="st4" d="M162.2,231.2c0,4.1-3.4,7.5-7.5,7.5s-7.5-3.4-7.5-7.5c0-4.1,3.4-7.5,7.5-7.5
		S162.2,227,162.2,231.2"/>
</g>
<g transform="matrix(0.998633,0,0,0.998633,0,0)">
</g>
<g transform="matrix(1,0,0,1,182.627,281.158)">
</g>
<g transform="matrix(1,0,0,1,182.627,281.158)">
	<text transform="matrix(1 0 0 1 -70.3786 -48.8333)" class="st5 st6">DC7955</text>
</g>
<g transform="matrix(1,0,0,1,182.627,281.158)">
</g>
<g transform="matrix(0.998633,0,0,0.998633,0,0)">
</g>
<g transform="matrix(0.998633,0,0,0.998633,0,0)">
	<path vector-effect="non-scaling-stroke" class="st1" d="M344,263c0,4.1-3.4,7.5-7.5,7.5s-7.5-3.4-7.5-7.5c0-4.1,3.4-7.5,7.5-7.5
		S344,258.9,344,263"/>
</g>
<g transform="matrix(0.998633,0,0,0.998633,0,0)">
</g>
<g transform="matrix(0.998633,0,0,0.998633,0,0)">
</g>
<g transform="matrix(0.998633,0,0,0.998633,0,0)">
	<path vector-effect="none" class="st2" d="M336.5,263h7.5H336.5"/>
</g>
<g transform="matrix(0.998633,0,0,0.998633,0,0)">
</g>
<g transform="matrix(0.998633,0,0,0.998633,0,0)">
</g>
<g transform="matrix(0.998633,0,0,0.998633,0,0)">
	<path vector-effect="none" class="st3" d="M336.5,263h7.5H336.5"/>
</g>
<g transform="matrix(0.998633,0,0,0.998633,0,0)">
</g>
<g transform="matrix(0.998633,0,0,0.998633,0,0)">
</g>
<g transform="matrix(0.998633,0,0,0.998633,0,0)">
	<path vector-effect="none" class="st4" d="M344,263c0,4.1-3.4,7.5-7.5,7.5s-7.5-3.4-7.5-7.5c0-4.1,3.4-7.5,7.5-7.5
		S344,258.9,344,263"/>
</g>
<g transform="matrix(0.998633,0,0,0.998633,0,0)">
</g>
<g transform="matrix(1,0,0,1,364.219,312.97)">
</g>
<g transform="matrix(1,0,0,1,364.219,312.97)">
	<text transform="matrix(1 0 0 1 -70.3786 -48.8333)" class="st5 st6">DC7957</text>
</g>
<g transform="matrix(1,0,0,1,364.219,312.97)">
</g>
<g transform="matrix(0.998633,0,0,0.998633,0,0)">
</g>
<g transform="matrix(0.998633,0,0,0.998633,0,0)">
	<path vector-effect="non-scaling-stroke" class="st1" d="M241.9,240.4c0,5.9-4.7,10.6-10.6,10.6s-10.6-4.7-10.6-10.6
		c0-5.9,4.7-10.6,10.6-10.6S241.9,234.5,241.9,240.4"/>
</g>
<g transform="matrix(0.998633,0,0,0.998633,0,0)">
</g>
<g transform="matrix(0.998633,0,0,0.998633,0,0)">
</g>
<g transform="matrix(0.998633,0,0,0.998633,0,0)">
	<path vector-effect="none" class="st2" d="M231.3,240.4h10.6H231.3"/>
</g>
<g transform="matrix(0.998633,0,0,0.998633,0,0)">
</g>
<g transform="matrix(0.998633,0,0,0.998633,0,0)">
</g>
<g transform="matrix(0.998633,0,0,0.998633,0,0)">
	<path vector-effect="none" class="st3" d="M231.3,240.4h10.6H231.3"/>
</g>
<g transform="matrix(0.998633,0,0,0.998633,0,0)">
</g>
<g transform="matrix(0.998633,0,0,0.998633,0,0)">
</g>
<g transform="matrix(0.998633,0,0,0.998633,0,0)">
	<path vector-effect="none" class="st4" d="M241.9,240.4c0,5.9-4.7,10.6-10.6,10.6s-10.6-4.7-10.6-10.6c0-5.9,4.7-10.6,10.6-10.6
		S241.9,234.5,241.9,240.4"/>
</g>
<g transform="matrix(0.998633,0,0,0.998633,0,0)">
</g>
<g transform="matrix(1,0,0,1,256,287.276)">
</g>
<g transform="matrix(1,0,0,1,256,287.276)">
	<text transform="matrix(1 0 0 1 -70.3786 -48.8333)" class="st5 st6">DC7958</text>
</g>
<g transform="matrix(1,0,0,1,256,287.276)">
</g>
<g transform="matrix(0.998633,0,0,0.998633,0,0)">
</g>
<g transform="matrix(0.998633,0,0,0.998633,0,0)">
	<path vector-effect="non-scaling-stroke" class="st1" d="M199.6,326.9c0,7.2-5.8,13-13,13c-7.2,0-13-5.8-13-13c0-7.2,5.8-13,13-13
		C193.8,313.9,199.6,319.7,199.6,326.9"/>
</g>
<g transform="matrix(0.998633,0,0,0.998633,0,0)">
</g>
<g transform="matrix(0.998633,0,0,0.998633,0,0)">
</g>
<g transform="matrix(0.998633,0,0,0.998633,0,0)">
	<path vector-effect="none" class="st2" d="M186.6,326.9h13c0-7.2-5.8-13-13-13c-7.2,0-13,5.8-13,13c0,4.8,2.6,9,6.5,11.3
		L186.6,326.9"/>
</g>
<g transform="matrix(0.998633,0,0,0.998633,0,0)">
</g>
<g transform="matrix(0.998633,0,0,0.998633,0,0)">
</g>
<g transform="matrix(0.998633,0,0,0.998633,0,0)">
	<path vector-effect="none" class="st3" d="M186.6,326.9l-6.5,11.3c1.9,1.1,4.1,1.7,6.5,1.7c7.2,0,13-5.8,13-13H186.6"/>
</g>
<g transform="matrix(0.998633,0,0,0.998633,0,0)">
</g>
<g transform="matrix(1,0,0,1,209.023,371.302)">
</g>
<g transform="matrix(1,0,0,1,209.023,371.302)">
	<text transform="matrix(1 0 0 1 -70.3786 -48.8333)" class="st5 st6">DC7962</text>
</g>
<g transform="matrix(1,0,0,1,209.023,371.302)">
</g>
<g transform="matrix(0.998633,0,0,0.998633,0,0)">
</g>
<g transform="matrix(0.998633,0,0,0.998633,0,0)">
	<path vector-effect="non-scaling-stroke" class="st1" d="M379.3,149.9c0,4.1-3.4,7.5-7.5,7.5c-4.1,0-7.5-3.4-7.5-7.5
		s3.4-7.5,7.5-7.5C376,142.4,379.3,145.7,379.3,149.9"/>
</g>
<g transform="matrix(0.998633,0,0,0.998633,0,0)">
</g>
<g transform="matrix(0.998633,0,0,0.998633,0,0)">
</g>
<g transform="matrix(0.998633,0,0,0.998633,0,0)">
	<path vector-effect="none" class="st2" d="M379.3,149.9c0,4.1-3.4,7.5-7.5,7.5c-4.1,0-7.5-3.4-7.5-7.5s3.4-7.5,7.5-7.5
		C376,142.4,379.3,145.7,379.3,149.9"/>
</g>
<g transform="matrix(0.998633,0,0,0.998633,0,0)">
</g>
<g transform="matrix(1,0,0,1,399.486,199.996)">
</g>
<g transform="matrix(1,0,0,1,399.486,199.996)">
	<text transform="matrix(1 0 0 1 -70.3786 -48.8333)" class="st5 st6">DC7967</text>
</g>
<g transform="matrix(1,0,0,1,399.486,199.996)">
</g>
<g transform="matrix(0.998633,0,0,0.998633,0,0)">
</g>
<g transform="matrix(0.998633,0,0,0.998633,0,0)">
	<path vector-effect="non-scaling-stroke" class="st1" d="M149.8,401.4c0,5.9-4.7,10.6-10.6,10.6s-10.6-4.7-10.6-10.6
		s4.7-10.6,10.6-10.6S149.8,395.5,149.8,401.4"/>
</g>
<g transform="matrix(0.998633,0,0,0.998633,0,0)">
</g>
<g transform="matrix(0.998633,0,0,0.998633,0,0)">
</g>
<g transform="matrix(0.998633,0,0,0.998633,0,0)">
	<path vector-effect="none" class="st2" d="M139.2,401.4h10.6c0-5.9-4.7-10.6-10.6-10.6s-10.6,4.7-10.6,10.6H139.2"/>
</g>
<g transform="matrix(0.998633,0,0,0.998633,0,0)">
</g>
<g transform="matrix(0.998633,0,0,0.998633,0,0)">
</g>
<g transform="matrix(0.998633,0,0,0.998633,0,0)">
	<path vector-effect="none" class="st3" d="M139.2,401.4h-10.6c0,5.9,4.7,10.6,10.6,10.6s10.6-4.7,10.6-10.6H139.2"/>
</g>
<g transform="matrix(0.998633,0,0,0.998633,0,0)">
</g>
<g transform="matrix(1,0,0,1,164.074,448.061)">
</g>
<g transform="matrix(1,0,0,1,164.074,448.061)">
	<text transform="matrix(1 0 0 1 -70.3786 -48.8333)" class="st5 st6">DC7968</text>
</g>
<g transform="matrix(1,0,0,1,164.074,448.061)">
</g>
<g transform="matrix(0.998633,0,0,0.998633,0,0)">
</g>
<g transform="matrix(0.998633,0,0,0.998633,0,0)">
	<path vector-effect="non-scaling-stroke" class="st1" d="M282.2,306.5c0,5.9-4.7,10.6-10.6,10.6c-5.9,0-10.6-4.7-10.6-10.6
		s4.7-10.6,10.6-10.6C277.4,295.9,282.2,300.6,282.2,306.5"/>
</g>
<g transform="matrix(0.998633,0,0,0.998633,0,0)">
</g>
<g transform="matrix(0.998633,0,0,0.998633,0,0)">
</g>
<g transform="matrix(0.998633,0,0,0.998633,0,0)">
	<path vector-effect="none" class="st2" d="M271.6,306.5h10.6H271.6"/>
</g>
<g transform="matrix(0.998633,0,0,0.998633,0,0)">
</g>
<g transform="matrix(0.998633,0,0,0.998633,0,0)">
</g>
<g transform="matrix(0.998633,0,0,0.998633,0,0)">
	<path vector-effect="none" class="st3" d="M271.6,306.5h10.6H271.6"/>
</g>
<g transform="matrix(0.998633,0,0,0.998633,0,0)">
</g>
<g transform="matrix(0.998633,0,0,0.998633,0,0)">
</g>
<g transform="matrix(0.998633,0,0,0.998633,0,0)">
	<path vector-effect="none" class="st4" d="M282.2,306.5c0,5.9-4.7,10.6-10.6,10.6c-5.9,0-10.6-4.7-10.6-10.6s4.7-10.6,10.6-10.6
		C277.4,295.9,282.2,300.6,282.2,306.5"/>
</g>
<g transform="matrix(0.998633,0,0,0.998633,0,0)">
</g>
<g transform="matrix(1,0,0,1,296.258,353.255)">
</g>
<g transform="matrix(1,0,0,1,296.258,353.255)">
	<text transform="matrix(1 0 0 1 -70.3786 -48.8333)" class="st5 st6">DC8222</text>
</g>
<g transform="matrix(1,0,0,1,296.258,353.255)">
</g>
<g transform="matrix(0.998633,0,0,0.998633,0,0)">
</g>
<g transform="matrix(0.998633,0,0,0.998633,0,0)">
	<path vector-effect="non-scaling-stroke" class="st1" d="M370.1,12.6c0,4.1-3.4,7.5-7.5,7.5c-4.1,0-7.5-3.4-7.5-7.5
		s3.4-7.5,7.5-7.5C366.8,5.1,370.1,8.5,370.1,12.6"/>
</g>
<g transform="matrix(0.998633,0,0,0.998633,0,0)">
</g>
<g transform="matrix(0.998633,0,0,0.998633,0,0)">
</g>
<g transform="matrix(0.998633,0,0,0.998633,0,0)">
	<path vector-effect="none" class="st2" d="M362.6,12.6h7.5H362.6"/>
</g>
<g transform="matrix(0.998633,0,0,0.998633,0,0)">
</g>
<g transform="matrix(0.998633,0,0,0.998633,0,0)">
</g>
<g transform="matrix(0.998633,0,0,0.998633,0,0)">
	<path vector-effect="none" class="st3" d="M370.1,12.6c0,4.1-3.4,7.5-7.5,7.5c-4.1,0-7.5-3.4-7.5-7.5s3.4-7.5,7.5-7.5
		C366.8,5.1,370.1,8.5,370.1,12.6"/>
</g>
<g transform="matrix(0.998633,0,0,0.998633,0,0)">
</g>
<g transform="matrix(1,0,0,1,390.309,62.9409)">
</g>
<g transform="matrix(1,0,0,1,390.309,62.9409)">
	<text transform="matrix(1 0 0 1 -70.3786 -48.8333)" class="st5 st6">DC8229</text>
</g>
<g transform="matrix(1,0,0,1,390.309,62.9409)">
</g>
<g transform="matrix(0.998633,0,0,0.998633,0,0)">
</g>
<g transform="matrix(0.998633,0,0,0.998633,0,0)">
	<path vector-effect="none" class="st7" d="M313.7,190.7c0,2.8-2.2,5-5,5c-2.8,0-5-2.2-5-5s2.2-5,5-5
		C311.5,185.7,313.7,187.9,313.7,190.7"/>
</g>
<g transform="matrix(0.998633,0,0,0.998633,0,0)">
</g>
<g transform="matrix(1,0,0,1,373.204,242.713)">
</g>
<g transform="matrix(1,0,0,1,373.204,242.713)">
</g>
<g transform="matrix(0.998633,0,0,0.998633,479.158,332.941)">
</g>
<g transform="matrix(0.998633,0,0,0.998633,479.158,332.941)">
</g>
<g transform="matrix(0.998633,0,0,0.998633,494.137,347.921)">
</g>
<g transform="matrix(0.998633,0,0,0.998633,494.137,347.921)">
	<path vector-effect="none" class="st8" d="M-120.6-11.9c0,13.1-10.6,23.7-23.7,23.7c-13.1,0-23.7-10.6-23.7-23.7
		s10.6-23.7,23.7-23.7C-131.2-35.6-120.6-25-120.6-11.9"/>
</g>
<g transform="matrix(0.998633,0,0,0.998633,494.137,347.921)">
</g>
<g transform="matrix(0.998633,0,0,0.998633,504.684,368.188)">
</g>
<g transform="matrix(0.998633,0,0,0.998633,504.684,368.188)">
	<text transform="matrix(1.0014 0 0 1.0014 -168.0056 -30.2667)" class="st5 st9">10 samples</text>
</g>
<g transform="matrix(0.998633,0,0,0.998633,504.684,368.188)">
</g>
<g transform="matrix(0.998633,0,0,0.998633,510.332,381.309)">
</g>
<g transform="matrix(0.998633,0,0,0.998633,510.332,381.309)">
	<path vector-effect="none" class="st8" d="M-153-28.1c0,4.1-3.4,7.5-7.5,7.5c-4.1,0-7.5-3.4-7.5-7.5c0-4.1,3.4-7.5,7.5-7.5
		C-156.4-35.6-153-32.3-153-28.1"/>
</g>
<g transform="matrix(0.998633,0,0,0.998633,510.332,381.309)">
</g>
<g transform="matrix(0.998633,0,0,0.998633,507.18,396.788)">
</g>
<g transform="matrix(0.998633,0,0,0.998633,507.18,396.788)">
	<text transform="matrix(1.0014 0 0 1.0014 -168.0055 -30.2666)" class="st5 st9">1 sample</text>
</g>
<g transform="matrix(0.998633,0,0,0.998633,507.18,396.788)">
</g>
<g transform="matrix(0.998633,0,0,0.998633,494.137,417.104)">
</g>
<g transform="matrix(0.998633,0,0,0.998633,494.137,417.104)">
</g>
<g transform="matrix(0.998633,0,0,0.998633,524.096,417.104)">
</g>
<g transform="matrix(0.998633,0,0,0.998633,524.096,417.104)">
</g>
<g transform="matrix(0.998633,0,0,0.998633,494.137,437.077)">
</g>
<g transform="matrix(0.998633,0,0,0.998633,494.137,437.077)">
</g>
<g transform="matrix(0.998633,0,0,0.998633,524.096,437.077)">
</g>
<g transform="matrix(0.998633,0,0,0.998633,524.096,437.077)">
</g>
<g transform="matrix(0.998633,0,0,0.998633,494.137,457.049)">
</g>
<g transform="matrix(0.998633,0,0,0.998633,494.137,457.049)">
</g>
<g transform="matrix(0.998633,0,0,0.998633,524.096,457.049)">
</g>
<g transform="matrix(0.998633,0,0,0.998633,524.096,457.049)">
</g>
<g transform="matrix(1,0,0,1,0,0)">
</g>
</svg>
